<mxfile host="app.diagrams.net" modified="2020-05-24T16:08:08.080Z" agent="5.0 (Windows NT 10.0; Win64; x64) AppleWebKit/537.36 (KHTML, like Gecko) Chrome/81.0.4044.138 Safari/537.36" etag="dZ2NGe5eWtSAWVTcqYBy" version="13.1.3" type="github">
  <diagram id="ODUeXTA1KrEAal_4TrUl" name="Page-1">
    <mxGraphModel dx="1131" dy="746" grid="1" gridSize="10" guides="1" tooltips="1" connect="1" arrows="1" fold="1" page="1" pageScale="1" pageWidth="827" pageHeight="1169" math="0" shadow="0">
      <root>
        <mxCell id="0" />
        <mxCell id="1" parent="0" />
        <mxCell id="U1Pi5GVpaya0BCWk5Kv--49" style="edgeStyle=orthogonalEdgeStyle;rounded=0;orthogonalLoop=1;jettySize=auto;html=1;entryX=0.443;entryY=-0.019;entryDx=0;entryDy=0;entryPerimeter=0;" parent="1" source="U1Pi5GVpaya0BCWk5Kv--3" target="U1Pi5GVpaya0BCWk5Kv--42" edge="1">
          <mxGeometry relative="1" as="geometry" />
        </mxCell>
        <mxCell id="U1Pi5GVpaya0BCWk5Kv--50" style="edgeStyle=orthogonalEdgeStyle;rounded=0;orthogonalLoop=1;jettySize=auto;html=1;entryX=0.5;entryY=1;entryDx=0;entryDy=0;" parent="1" source="U1Pi5GVpaya0BCWk5Kv--3" target="U1Pi5GVpaya0BCWk5Kv--41" edge="1">
          <mxGeometry relative="1" as="geometry" />
        </mxCell>
        <mxCell id="U1Pi5GVpaya0BCWk5Kv--3" value="메인페이지" style="rounded=1;whiteSpace=wrap;html=1;" parent="1" vertex="1">
          <mxGeometry x="700" y="560" width="120" height="60" as="geometry" />
        </mxCell>
        <mxCell id="U1Pi5GVpaya0BCWk5Kv--11" value="로그인" style="shape=step;perimeter=stepPerimeter;whiteSpace=wrap;html=1;fixedSize=1;" parent="1" vertex="1">
          <mxGeometry x="540" y="680" width="120" height="50" as="geometry" />
        </mxCell>
        <mxCell id="U1Pi5GVpaya0BCWk5Kv--53" style="edgeStyle=orthogonalEdgeStyle;rounded=0;orthogonalLoop=1;jettySize=auto;html=1;entryX=0;entryY=0.5;entryDx=0;entryDy=0;" parent="1" source="U1Pi5GVpaya0BCWk5Kv--41" target="U1Pi5GVpaya0BCWk5Kv--51" edge="1">
          <mxGeometry relative="1" as="geometry" />
        </mxCell>
        <mxCell id="U1Pi5GVpaya0BCWk5Kv--55" style="edgeStyle=orthogonalEdgeStyle;rounded=0;orthogonalLoop=1;jettySize=auto;html=1;entryX=0;entryY=0.5;entryDx=0;entryDy=0;" parent="1" source="U1Pi5GVpaya0BCWk5Kv--41" target="U1Pi5GVpaya0BCWk5Kv--52" edge="1">
          <mxGeometry relative="1" as="geometry" />
        </mxCell>
        <mxCell id="U1Pi5GVpaya0BCWk5Kv--41" value="추천폰트" style="shape=step;perimeter=stepPerimeter;whiteSpace=wrap;html=1;fixedSize=1;" parent="1" vertex="1">
          <mxGeometry x="870" y="320" width="120" height="50" as="geometry" />
        </mxCell>
        <mxCell id="H57z6HmD-LU0xKSrhES1-6" style="edgeStyle=orthogonalEdgeStyle;rounded=0;orthogonalLoop=1;jettySize=auto;html=1;entryX=0;entryY=0.5;entryDx=0;entryDy=0;" edge="1" parent="1" source="U1Pi5GVpaya0BCWk5Kv--42" target="U1Pi5GVpaya0BCWk5Kv--66">
          <mxGeometry relative="1" as="geometry" />
        </mxCell>
        <mxCell id="H57z6HmD-LU0xKSrhES1-7" style="edgeStyle=orthogonalEdgeStyle;rounded=0;orthogonalLoop=1;jettySize=auto;html=1;entryX=0;entryY=0.5;entryDx=0;entryDy=0;" edge="1" parent="1" source="U1Pi5GVpaya0BCWk5Kv--42" target="U1Pi5GVpaya0BCWk5Kv--65">
          <mxGeometry relative="1" as="geometry" />
        </mxCell>
        <mxCell id="H57z6HmD-LU0xKSrhES1-8" style="edgeStyle=orthogonalEdgeStyle;rounded=0;orthogonalLoop=1;jettySize=auto;html=1;entryX=0;entryY=0.5;entryDx=0;entryDy=0;" edge="1" parent="1" source="U1Pi5GVpaya0BCWk5Kv--42" target="U1Pi5GVpaya0BCWk5Kv--64">
          <mxGeometry relative="1" as="geometry" />
        </mxCell>
        <mxCell id="H57z6HmD-LU0xKSrhES1-10" style="edgeStyle=orthogonalEdgeStyle;rounded=0;orthogonalLoop=1;jettySize=auto;html=1;entryX=0.533;entryY=1;entryDx=0;entryDy=0;entryPerimeter=0;" edge="1" parent="1" source="U1Pi5GVpaya0BCWk5Kv--42" target="H57z6HmD-LU0xKSrhES1-9">
          <mxGeometry relative="1" as="geometry" />
        </mxCell>
        <mxCell id="H57z6HmD-LU0xKSrhES1-13" style="edgeStyle=orthogonalEdgeStyle;rounded=0;orthogonalLoop=1;jettySize=auto;html=1;entryX=0;entryY=0.5;entryDx=0;entryDy=0;" edge="1" parent="1" source="U1Pi5GVpaya0BCWk5Kv--42" target="H57z6HmD-LU0xKSrhES1-11">
          <mxGeometry relative="1" as="geometry" />
        </mxCell>
        <mxCell id="H57z6HmD-LU0xKSrhES1-14" style="edgeStyle=orthogonalEdgeStyle;rounded=0;orthogonalLoop=1;jettySize=auto;html=1;entryX=0;entryY=0.5;entryDx=0;entryDy=0;" edge="1" parent="1" source="U1Pi5GVpaya0BCWk5Kv--42" target="H57z6HmD-LU0xKSrhES1-12">
          <mxGeometry relative="1" as="geometry" />
        </mxCell>
        <mxCell id="H57z6HmD-LU0xKSrhES1-20" style="edgeStyle=orthogonalEdgeStyle;rounded=0;orthogonalLoop=1;jettySize=auto;html=1;entryX=0.5;entryY=0;entryDx=0;entryDy=0;" edge="1" parent="1" source="U1Pi5GVpaya0BCWk5Kv--42" target="H57z6HmD-LU0xKSrhES1-19">
          <mxGeometry relative="1" as="geometry" />
        </mxCell>
        <mxCell id="U1Pi5GVpaya0BCWk5Kv--42" value="모든폰트" style="shape=step;perimeter=stepPerimeter;whiteSpace=wrap;html=1;fixedSize=1;" parent="1" vertex="1">
          <mxGeometry x="877" y="683" width="120" height="50" as="geometry" />
        </mxCell>
        <mxCell id="U1Pi5GVpaya0BCWk5Kv--43" value="소개" style="shape=step;perimeter=stepPerimeter;whiteSpace=wrap;html=1;fixedSize=1;" parent="1" vertex="1">
          <mxGeometry x="420" y="320" width="120" height="50" as="geometry" />
        </mxCell>
        <mxCell id="U1Pi5GVpaya0BCWk5Kv--44" value="새소식" style="shape=step;perimeter=stepPerimeter;whiteSpace=wrap;html=1;fixedSize=1;" parent="1" vertex="1">
          <mxGeometry x="590" y="315" width="120" height="50" as="geometry" />
        </mxCell>
        <mxCell id="H57z6HmD-LU0xKSrhES1-16" style="edgeStyle=orthogonalEdgeStyle;rounded=0;orthogonalLoop=1;jettySize=auto;html=1;entryX=0.5;entryY=1;entryDx=0;entryDy=0;" edge="1" parent="1" source="U1Pi5GVpaya0BCWk5Kv--51" target="U1Pi5GVpaya0BCWk5Kv--52">
          <mxGeometry relative="1" as="geometry" />
        </mxCell>
        <mxCell id="U1Pi5GVpaya0BCWk5Kv--51" value="모든 폰트에 &lt;br&gt;적용" style="rounded=0;whiteSpace=wrap;html=1;" parent="1" vertex="1">
          <mxGeometry x="1060" y="380" width="120" height="60" as="geometry" />
        </mxCell>
        <mxCell id="H57z6HmD-LU0xKSrhES1-21" style="edgeStyle=orthogonalEdgeStyle;rounded=0;orthogonalLoop=1;jettySize=auto;html=1;entryX=0.498;entryY=-0.027;entryDx=0;entryDy=0;entryPerimeter=0;" edge="1" parent="1" source="U1Pi5GVpaya0BCWk5Kv--52" target="H57z6HmD-LU0xKSrhES1-15">
          <mxGeometry relative="1" as="geometry" />
        </mxCell>
        <mxCell id="U1Pi5GVpaya0BCWk5Kv--52" value="추천 폰트들" style="rounded=0;whiteSpace=wrap;html=1;" parent="1" vertex="1">
          <mxGeometry x="1210" y="270" width="120" height="60" as="geometry" />
        </mxCell>
        <mxCell id="U1Pi5GVpaya0BCWk5Kv--64" value="손글씨" style="rhombus;whiteSpace=wrap;html=1;" parent="1" vertex="1">
          <mxGeometry x="1060" y="970" width="70" height="40" as="geometry" />
        </mxCell>
        <mxCell id="U1Pi5GVpaya0BCWk5Kv--65" value="명조" style="rhombus;whiteSpace=wrap;html=1;" parent="1" vertex="1">
          <mxGeometry x="1100" y="920" width="70" height="40" as="geometry" />
        </mxCell>
        <mxCell id="U1Pi5GVpaya0BCWk5Kv--66" value="고딕" style="rhombus;whiteSpace=wrap;html=1;" parent="1" vertex="1">
          <mxGeometry x="1140" y="870" width="70" height="40" as="geometry" />
        </mxCell>
        <mxCell id="H57z6HmD-LU0xKSrhES1-9" value="아무것도 선택 안함" style="rhombus;whiteSpace=wrap;html=1;" vertex="1" parent="1">
          <mxGeometry x="1020" y="1040" width="150" height="70" as="geometry" />
        </mxCell>
        <mxCell id="H57z6HmD-LU0xKSrhES1-23" style="edgeStyle=orthogonalEdgeStyle;rounded=0;orthogonalLoop=1;jettySize=auto;html=1;entryX=0;entryY=0.5;entryDx=0;entryDy=0;" edge="1" parent="1" source="H57z6HmD-LU0xKSrhES1-11" target="H57z6HmD-LU0xKSrhES1-15">
          <mxGeometry relative="1" as="geometry" />
        </mxCell>
        <mxCell id="H57z6HmD-LU0xKSrhES1-11" value="모든 폰트들" style="rounded=0;whiteSpace=wrap;html=1;" vertex="1" parent="1">
          <mxGeometry x="1210" y="595" width="120" height="60" as="geometry" />
        </mxCell>
        <mxCell id="H57z6HmD-LU0xKSrhES1-17" style="edgeStyle=orthogonalEdgeStyle;rounded=0;orthogonalLoop=1;jettySize=auto;html=1;entryX=0.5;entryY=0;entryDx=0;entryDy=0;" edge="1" parent="1" source="H57z6HmD-LU0xKSrhES1-12" target="H57z6HmD-LU0xKSrhES1-11">
          <mxGeometry relative="1" as="geometry" />
        </mxCell>
        <mxCell id="H57z6HmD-LU0xKSrhES1-12" value="모든 폰트에 &lt;br&gt;적용" style="rounded=0;whiteSpace=wrap;html=1;" vertex="1" parent="1">
          <mxGeometry x="1060" y="490" width="120" height="60" as="geometry" />
        </mxCell>
        <mxCell id="H57z6HmD-LU0xKSrhES1-15" value="다운로드" style="whiteSpace=wrap;html=1;aspect=fixed;" vertex="1" parent="1">
          <mxGeometry x="1420" y="560" width="130" height="130" as="geometry" />
        </mxCell>
        <mxCell id="H57z6HmD-LU0xKSrhES1-22" style="edgeStyle=orthogonalEdgeStyle;rounded=0;orthogonalLoop=1;jettySize=auto;html=1;" edge="1" parent="1" source="H57z6HmD-LU0xKSrhES1-19">
          <mxGeometry relative="1" as="geometry">
            <mxPoint x="1270" y="660" as="targetPoint" />
          </mxGeometry>
        </mxCell>
        <mxCell id="H57z6HmD-LU0xKSrhES1-19" value="허용 카테고리" style="rhombus;whiteSpace=wrap;html=1;" vertex="1" parent="1">
          <mxGeometry x="1125" y="730" width="100" height="60" as="geometry" />
        </mxCell>
      </root>
    </mxGraphModel>
  </diagram>
</mxfile>
